<?xml version="1.0" encoding="utf-8"?>
<!-- Generator: Adobe Illustrator 26.5.1, SVG Export Plug-In . SVG Version: 6.00 Build 0)  -->
<svg version="1.1" id="Layer_1" xmlns="http://www.w3.org/2000/svg" xmlns:xlink="http://www.w3.org/1999/xlink" x="0px" y="0px"
	 viewBox="0 0 128 128" style="enable-background:new 0 0 128 128;" xml:space="preserve">
<style type="text/css">
	.st0{fill:#2C2C2C;}
</style>
<path class="st0" d="M96.6,14c5.5,0,10,4.4,10,9.8c0,0,0,0,0,0.1V110l-10.4-9.1l-5.9-5.4L84,89.8l2.6,8.9H31.5c-5.5,0-10-4.4-10-9.8
	c0,0,0,0,0-0.1V23.9c0-5.5,4.5-9.9,9.9-9.9c0,0,0,0,0.1,0L96.6,14 M96.6,7.5H31.5C22.4,7.5,15,14.8,15,23.9v64.9
	c0,9.1,7.4,16.4,16.5,16.4h59.7l0.6,0.5l0.1,0.1h0.1l10.4,9.1l10.8,9.4V23.9C113,14.8,105.6,7.5,96.6,7.5z"/>
<path class="st0" d="M74.3,73.1c1.5,1.8,3.2,3.9,3.2,3.9c10.7-0.3,14.9-7.3,14.9-7.3c-0.2-9.7-2.6-19.3-7-28c-3.9-3-8.7-4.8-13.7-5
	l-0.7,0.8c8.3,2.5,12.1,6.1,12.1,6.1c-4.5-2.5-9.5-4-14.6-4.6c-3.3-0.4-6.6-0.3-9.8,0.1c-0.3,0-0.6,0-0.8,0.1c-3.8,0.4-7.5,1.4-11,3
	C45,43,44,43.5,44,43.5s4-3.8,12.8-6.3l-0.5-0.6c-5,0.2-9.7,2-13.6,5c-4.4,8.7-6.8,18.3-7,28c0,0,4.1,7,14.8,7.3c0,0,1.8-2.2,3.3-4
	c-6.2-1.8-8.5-5.7-8.5-5.7s0.5,0.3,1.4,0.8c0.1,0.1,0.1,0.1,0.2,0.1c0.2,0.1,0.3,0.1,0.4,0.2c1.1,0.6,2.3,1.2,3.5,1.6
	c2.3,0.9,4.7,1.6,7.1,2.1c4.2,0.8,8.4,0.8,12.6,0c2.4-0.4,4.8-1.1,7-2.1c2-0.7,3.8-1.7,5.6-2.8C83.1,67.3,80.7,71.3,74.3,73.1z
	 M56.3,66.4c-2.7,0-4.9-2.5-4.9-5.5c-0.3-2.7,1.6-5.2,4.3-5.5c2.7-0.3,5.2,1.6,5.5,4.3c0,0.4,0,0.8,0,1.2
	C61.4,63.8,59.2,66.3,56.3,66.4C56.3,66.4,56.3,66.4,56.3,66.4L56.3,66.4z M73.9,66.4c-2.7,0-4.9-2.4-4.9-5.5
	c0.3-2.7,2.7-4.7,5.5-4.4c2.7,0.3,4.7,2.7,4.4,5.5C78.6,64.5,76.4,66.4,73.9,66.4L73.9,66.4z"/>
</svg>
