<?xml version="1.0" encoding="utf-8"?>
<!-- Generator: Adobe Illustrator 26.5.1, SVG Export Plug-In . SVG Version: 6.00 Build 0)  -->
<svg version="1.1" id="Social_Icons" xmlns="http://www.w3.org/2000/svg" xmlns:xlink="http://www.w3.org/1999/xlink" x="0px"
	 y="0px" viewBox="0 0 128 128" style="enable-background:new 0 0 128 128;" xml:space="preserve">
<style type="text/css">
	.st0{fill:none;}
	.st1{fill-rule:evenodd;clip-rule:evenodd;fill:#2C2C2C;}
</style>
<g id="_x31__stroke">
	<g id="Soundcloud_1_">
		<rect class="st0" width="128" height="128"/>
		<path id="Soundcloud" class="st1" d="M55,98.4V32.7c0-2.1,0.6-3.3,1.8-3.7c2.7-0.6,5.3-1,7.9-1c6.1,0,11.7,1.5,17,4.3
			c5.2,2.9,9.5,6.9,12.7,11.9c3.2,5,5.1,10.5,5.6,16.6c2.4-1,5-1.6,7.7-1.6c5.6,0,10.3,2,14.3,6S128,74,128,79.6
			c0,5.6-2,10.4-5.9,14.4c-4,4-8.7,6-14.2,6L56,99.9c-0.4-0.1-0.6-0.3-0.8-0.7C55.1,99,55,98.7,55,98.4z M41,96.7
			c0,2.2,1.5,3.3,4.4,3.3c2.9,0,4.4-1.1,4.4-3.3V36.3c0-3.4-1.1-5.7-3.1-5.9c-1.3-0.2-2.6-0.2-3.8,0.9c-1.3,1.1-1.9,3.1-1.9,5
			L41,96.7L41,96.7z M27.3,96.5c0,1.2,0.4,2,1.3,2.6s1.9,0.9,3.2,0.9c1.3,0,2.3-0.3,3.1-0.9s1.2-1.5,1.2-2.6V59.2
			c0-1.2-0.4-2.3-1.3-3.2s-1.9-1.3-3.1-1.3c-1.2,0-2.3,0.4-3.2,1.3c-0.9,0.9-1.3,2-1.3,3.2L27.3,96.5L27.3,96.5z M13.7,94.6
			c0,1.2,0.4,2,1.2,2.6s1.9,0.9,3.1,0.9c1.3,0,2.4-0.3,3.2-0.9c0.8-0.6,1.2-1.5,1.2-2.6V53.7c0-1.2-0.4-2.2-1.3-3.1
			s-1.9-1.3-3.1-1.3c-1.2,0-2.2,0.4-3.1,1.3c-0.9,0.9-1.3,1.9-1.3,3.1C13.7,53.7,13.7,94.6,13.7,94.6z M0,87.1
			c0,1.6,0.6,2.8,1.7,3.7c1.2,0.8,2.4,1.1,3.7,0.9c1.2-0.2,2.1-0.7,2.6-1.3c0.5-0.6,0.7-1.7,0.7-3.2V69.6c0-1.2-0.4-2.3-1.3-3.2
			s-1.9-1.3-3.1-1.3c-1.2,0-2.2,0.4-3.1,1.3C0.4,67.3,0,68.3,0,69.6V87.1z"/>
	</g>
</g>
</svg>
