<?xml version="1.0" encoding="utf-8"?>
<!-- Generator: Adobe Illustrator 26.5.1, SVG Export Plug-In . SVG Version: 6.00 Build 0)  -->
<svg version="1.1" id="Layer_1" xmlns:serif="http://www.serif.com/"
	 xmlns="http://www.w3.org/2000/svg" xmlns:xlink="http://www.w3.org/1999/xlink" x="0px" y="0px" viewBox="0 0 1920 1080"
	 style="enable-background:new 0 0 1920 1080;" xml:space="preserve">
<style type="text/css">
	.st0{fill:none;}
	.st1{fill:#2C2C2C;}
</style>
<rect x="538.1" y="118.1" class="st0" width="843.8" height="843.8"/>
<path class="st1" d="M759.6,978.8c407.5,0,630.5-337.6,630.5-630.5c0-9.6,0-19.1-0.6-28.6c43.4-31.4,80.8-70.2,110.5-114.7
	c-40.4,17.9-83.3,29.7-127.3,34.9c46.2-27.7,80.9-71.3,97.4-122.6c-43.5,25.8-91.1,44-140.7,53.8c-41.9-44.6-100.4-69.8-161.6-69.8
	c-121.7,0-221.8,100.1-221.8,221.8c0,16.9,1.9,33.7,5.7,50.1c-178.1-8.9-344.2-93.2-456.7-231.5c-58.5,100.7-28.2,231.1,68.6,295.8
	c-35.3-1-69.8-10.6-100.6-27.7v2.8c0,105.1,74.8,196.4,177.8,217.2c-32.6,8.9-66.9,10.2-100,3.8c29,90,112.5,152.1,207,153.9
	c-78.4,61.7-175.4,95.1-275.2,95c-17.6,0-35.2-1.1-52.7-3.2c101.3,65,219.2,99.5,339.6,99.4"/>
</svg>
