<?xml version="1.0" encoding="utf-8"?>
<!-- Generator: Adobe Illustrator 26.5.1, SVG Export Plug-In . SVG Version: 6.00 Build 0)  -->
<svg version="1.1" id="Layer_1" xmlns:serif="http://www.serif.com/"
	 xmlns="http://www.w3.org/2000/svg" xmlns:xlink="http://www.w3.org/1999/xlink" x="0px" y="0px" viewBox="0 0 1920 1080"
	 style="enable-background:new 0 0 1920 1080;" xml:space="preserve">
<style type="text/css">
	.st0{fill:#2B2B2B;}
	.st1{fill:#FFFFFF;}
</style>
<g>
	<path class="st0" d="M1477.4,280.1c-12.4-46.5-49-83.1-95.5-95.5C1297.7,162,960,162,960,162s-337.7,0-422,22.6
		c-46.5,12.4-83.1,49-95.5,95.5C420,364.3,420,540,420,540s0,175.7,22.6,259.9c12.4,46.5,49,83.1,95.5,95.5
		C622.3,918,960,918,960,918s337.7,0,422-22.6c46.5-12.4,83.1-49,95.5-95.5C1500,715.7,1500,540,1500,540S1500,364.3,1477.4,280.1
		L1477.4,280.1z"/>
	<path class="st1" d="M852,702l280.6-162L852,378V702L852,702z"/>
</g>
</svg>
